<svg xmlns="http://www.w3.org/2000/svg"  viewBox="0 0 50 50" width="480px" height="480px">
 <g>
  <title>Layer 1</title>
  <path stroke="null" id="svg_1" fill="#000000" d="m5,5.71605l18,0l0,1.59674l-18,0l0,-1.59674zm0,15.96732l18,0l0,1.59674l-18,0l0,-1.59674zm0,-14.37059l0,14.37059l2,0l0,-14.37059l-2,0zm16,0l0,14.37059l2,0l0,-14.37059l-2,0z"/>
  <path stroke="null" id="svg_2" fill="#000000" d="m26.87654,5.59259l18,0l0,1.60796l-18,0l0,-1.60796zm0,16.07955l18,0l0,1.60796l-18,0l0,-1.60796zm0,-14.4716l0,14.4716l2,0l0,-14.4716l-2,0zm16,0l0,14.4716l2,0l0,-14.4716l-2,0z"/>
  <path stroke="null" id="svg_3" fill="#000000" d="m5,26.59705l18,0l0,1.59667l-18,0l0,-1.59667zm0,15.96677l18,0l0,1.59667l-18,0l0,-1.59667zm0,-14.37009l0,14.37009l2,0l0,-14.37009l-2,0zm16,0l0,14.37009l2,0l0,-14.37009l-2,0z"/>
  <path stroke="null" id="svg_4" fill="#000000" d="m27,26.84275l18,0l0,1.57434l-18,0l0,-1.57434zm0,15.7434l18,0l0,1.57434l-18,0l0,-1.57434zm0,-14.16906l0,14.16906l2,0l0,-14.16906l-2,0zm16,0l0,14.16906l2,0l0,-14.16906l-2,0z"/>
 </g>

</svg>